<?xml version="1.0" encoding="UTF-8" standalone="no"?>
<svg
   xmlns:dc="http://purl.org/dc/elements/1.1/"
   xmlns:cc="http://creativecommons.org/ns#"
   xmlns:rdf="http://www.w3.org/1999/02/22-rdf-syntax-ns#"
   xmlns:svg="http://www.w3.org/2000/svg"
   xmlns="http://www.w3.org/2000/svg"
   xmlns:sodipodi="http://sodipodi.sourceforge.net/DTD/sodipodi-0.dtd"
   xmlns:inkscape="http://www.inkscape.org/namespaces/inkscape"
   version="1.1"
   id="Layer_1"
   x="0px"
   y="0px"
   width="70.659px"
   height="128.036px"
   viewBox="0 0 70.659 128.036"
   enable-background="new 0 0 70.659 128.036"
   xml:space="preserve"
   sodipodi:docname="dpad.svg"
   inkscape:version="1.0.2 (e86c8708, 2021-01-15)"><metadata
   id="metadata7278"><rdf:RDF><cc:Work
       rdf:about=""><dc:format>image/svg+xml</dc:format><dc:type
         rdf:resource="http://purl.org/dc/dcmitype/StillImage" /><dc:title></dc:title></cc:Work></rdf:RDF></metadata><defs
   id="defs7276" /><sodipodi:namedview
   pagecolor="#ffffff"
   bordercolor="#666666"
   borderopacity="1"
   objecttolerance="10"
   gridtolerance="10"
   guidetolerance="10"
   inkscape:pageopacity="0"
   inkscape:pageshadow="2"
   inkscape:window-width="1680"
   inkscape:window-height="1022"
   id="namedview7274"
   showgrid="false"
   inkscape:zoom="5.7405732"
   inkscape:cx="35.329498"
   inkscape:cy="64.017998"
   inkscape:window-x="0"
   inkscape:window-y="28"
   inkscape:window-maximized="0"
   inkscape:current-layer="Layer_1" />
<g
   id="g7213">
	<g
   id="Up">
		<g
   id="g7191">
			<path
   fill="#EBEBEB"
   d="M40.432,41.552V7.333c0-0.043,0.007-0.093,0.014-0.142l0.06-0.227c0.029-0.041,0.066-0.107,0.082-0.133     c0.495-0.809,2.105-1.517,4.535-1.992c0.305-0.068,0.594-0.126,0.889-0.182c0.351-0.063,0.658-0.112,0.958-0.135     c0.035-0.003,0.128-0.016,0.163-0.026c0.255-0.029,0.578-0.072,0.906-0.111c0.335-0.04,0.674-0.076,1.018-0.109     c0.364-0.034,0.693-0.06,1.023-0.083l2.369-0.077c0.353-0.008,0.701-0.012,1.047-0.012c7.325,0,13.063,1.418,13.063,3.229     c0.001,0.172,0.001,15.928,0.001,34.219L53.495,54.604L40.432,41.552z"
   id="path7187" />
			<path
   fill="#EDF4F4"
   d="M53.495,4.604c8.089,0,12.563,1.613,12.563,2.729c0,0.015,0,0.029,0.001,0.044v33.968L53.495,53.897     L40.932,41.344V7.336c0-0.021,0.004-0.043,0.004-0.043c0,0,0,0,0,0c0-0.003,0.001-0.007,0.002-0.011l0.001-0.003     c0.013-0.035,0.029-0.094,0.039-0.134c0.012-0.018,0.024-0.036,0.036-0.055c0.153-0.25,0.906-1.114,4.186-1.759     c0.02-0.003,0.041-0.007,0.061-0.012c0.272-0.062,0.555-0.119,0.833-0.171l0.081-0.014c0.333-0.061,0.599-0.098,0.795-0.114     c0.048-0.002,0.113-0.006,0.188-0.02c0.309-0.042,0.612-0.082,0.919-0.119c0.008-0.001,0.016-0.002,0.024-0.003     c0.328-0.04,0.663-0.075,1.002-0.107l0,0c0.016-0.001,0.031-0.002,0.039-0.003c0.32-0.03,0.645-0.056,0.966-0.078l0.117-0.006     c0.19-0.008,0.382-0.013,0.574-0.017l0.395-0.01c0.068-0.002,0.135-0.005,0.169-0.008c0.325-0.013,0.651-0.025,0.979-0.033     l0.124-0.001C52.808,4.608,53.152,4.604,53.495,4.604 M53.495,3.604c-0.35,0-0.702,0.004-1.052,0.012     c-0.041,0-0.083,0.001-0.125,0.002c-0.333,0.008-0.664,0.02-0.994,0.033c-0.055,0.004-0.11,0.006-0.166,0.008     c-0.327,0.01-0.654,0.014-0.977,0.028c-0.046,0.002-0.092,0.004-0.138,0.007c-0.335,0.023-0.668,0.05-0.996,0.081     c-0.014,0.001-0.027,0.003-0.041,0.003c-0.348,0.033-0.691,0.07-1.027,0.11c0,0-0.002,0-0.002,0     c-0.331,0.04-0.656,0.083-0.989,0.128c-0.013,0.004-0.034,0.006-0.059,0.007c-0.317,0.024-0.643,0.076-0.938,0.13     c-0.025,0.004-0.049,0.008-0.074,0.012c-0.301,0.057-0.596,0.116-0.88,0.181c-0.004,0-0.008,0.001-0.013,0.002     c-2.427,0.475-4.25,1.215-4.865,2.222c-0.041,0.041-0.076,0.1-0.106,0.165c-0.003,0.006-0.006,0.011-0.009,0.017     C40.029,6.812,40.015,6.872,40,6.934c-0.007,0.019-0.012,0.027-0.017,0.041c-0.012,0.045-0.024,0.093-0.033,0.142     c-0.011,0.075-0.02,0.15-0.02,0.216c0,7.742,0,20.596,0,34.426l13.563,13.552l13.564-13.552c0-18.983,0-34.425,0-34.425h-0.001     V7.333C67.058,4.831,60.262,3.604,53.495,3.604L53.495,3.604z"
   id="path7189" />
		</g>
		<path
   fill="#DBDBDB"
   d="M45.026,4.347c0.004,0,0.008-0.001,0.013-0.002c0.284-0.064,0.579-0.124,0.88-0.181    c0.025-0.004,0.049-0.008,0.074-0.012c0.295-0.054,0.62-0.105,0.938-0.13c0.025-0.001,0.046-0.003,0.059-0.007    c0.333-0.045,0.658-0.088,0.989-0.128c0,0,0.002,0,0.002,0c0.336-0.041,0.679-0.077,1.027-0.11c0.014,0,0.027-0.002,0.041-0.003    c0.328-0.031,0.661-0.057,0.996-0.081c0.046-0.003,0.092-0.005,0.138-0.007c0.323-0.014,0.649-0.018,0.977-0.028    c0.056-0.002,0.111-0.004,0.166-0.008c0.33-0.013,0.661-0.025,0.994-0.033c0.042-0.001,0.083-0.001,0.125-0.002    c0.35-0.008,0.702-0.012,1.052-0.012c6.768,0,13.563,1.227,13.563,3.729l2.755-2.772C68.913,3.193,67.1,1.853,63.67,1.036    C60.927,0.362,57.313,0,53.495,0c-3.846,0-7.459,0.362-10.18,1.036C40.375,1.753,38.6,2.832,37.59,3.999l2.57,2.57    C40.776,5.563,42.599,4.822,45.026,4.347z"
   id="path7193" />
		<path
   fill="#E3E3E3"
   d="M67.058,7.333L67.058,7.333c0.001,0,0.001,15.442,0.001,34.425l3.6-3.625V7.333    c0-0.852-0.222-1.835-0.846-2.773L67.058,7.333L67.058,7.333z"
   id="path7195" />
		<path
   fill="#D6D6D6"
   d="M39.932,7.333c0-0.066,0.008-0.142,0.02-0.216c0.009-0.049,0.021-0.096,0.033-0.142    c0.005-0.014,0.01-0.022,0.017-0.041c0.015-0.062,0.028-0.122,0.045-0.183c0.003-0.005,0.006-0.011,0.009-0.017    c0.03-0.065,0.066-0.124,0.106-0.165l-2.57-2.57C36.621,5.12,36.33,6.292,36.33,7.333v30.802l3.602,3.625    C39.932,27.929,39.932,15.075,39.932,7.333z"
   id="path7197" />
	</g>
	<g
   id="Down">
		<g
   id="g7204">
			<path
   fill="#EBEBEB"
   d="M17.166,51.211c-7.132,0-12.742-1.323-13.049-3.078c-0.008-0.049-0.014-0.103-0.014-0.148     c0-0.138,0-15.419,0-34.217L17.166,0.707l13.064,13.062v34.217c0,0.045-0.006,0.099-0.015,0.152     C29.909,49.888,24.298,51.211,17.166,51.211z"
   id="path7200" />
			<path
   fill="#EDF4F4"
   d="M17.166,1.414l12.564,12.562v34.009c0,0.021-0.004,0.046-0.006,0.063     c-0.195,1.117-4.668,2.664-12.558,2.664c-7.889,0-12.361-1.547-12.556-2.656c-0.004-0.027-0.008-0.054-0.008-0.07v-34.01     L17.166,1.414 M17.166,0L3.602,13.562c0,18.978,0,34.424,0,34.424h0c0,0.07,0.007,0.152,0.021,0.234     c0.408,2.329,6.975,3.491,13.542,3.491c6.568,0,13.135-1.162,13.542-3.491c0.014-0.082,0.021-0.165,0.021-0.234     c0-7.745,0-20.598,0-34.424L17.166,0L17.166,0z"
   id="path7202" />
		</g>
		<path
   fill="#F0F0F0"
   d="M30.729,47.985l2.754,2.77c0.624-0.945,0.846-1.92,0.846-2.77V17.182l-3.6-3.62    C30.729,27.387,30.729,40.24,30.729,47.985z"
   id="path7206" />
		<path
   fill="#E8E8E8"
   d="M30.708,48.22c-0.407,2.329-6.975,3.491-13.542,3.491c-6.567,0-13.134-1.162-13.542-3.491    c-0.014-0.082-0.021-0.165-0.021-0.234l-2.785,2.771c0.929,1.367,2.743,2.702,6.168,3.522c2.721,0.672,6.333,1.041,10.18,1.041    c3.818,0,7.432-0.369,10.175-1.041c3.43-0.82,5.243-2.157,6.143-3.524l-2.754-2.77C30.729,48.055,30.722,48.138,30.708,48.22z"
   id="path7208" />
		<path
   fill="#E3E3E3"
   d="M3.603,47.985L3.603,47.985c0,0,0-15.446,0-34.424L0,17.182v30.804v0.846l0.093,0.236    c0.128,0.545,0.345,1.119,0.724,1.689L3.603,47.985L3.603,47.985z"
   id="path7210" />
	</g>
</g>
<g
   id="g7241">
	<g
   id="Right">
		<g
   id="g7219">
			<path
   fill="#EBEBEB"
   d="M13.771,87.558L0.708,74.497l13.063-13.052h34.212c1.809,0,3.226,5.735,3.226,13.057     s-1.417,13.057-3.226,13.057H13.771z"
   id="path7215" />
			<path
   fill="#EDF4F4"
   d="M47.983,61.945c1.138,0,2.726,4.777,2.726,12.556c0,7.78-1.588,12.557-2.726,12.557H13.978L1.415,74.497     l12.563-12.552H47.983 M47.983,60.945c-7.759,0-20.613,0-34.419,0L0,74.497l13.564,13.562c18.958,0,34.419,0,34.419,0h0     C52.951,88.058,52.951,60.945,47.983,60.945L47.983,60.945z"
   id="path7217" />
		</g>
		<path
   fill="#E6E6E6"
   d="M47.983,60.945l2.755-2.778c-0.933-0.621-1.92-0.846-2.755-0.846H17.165l-3.601,3.625    C27.37,60.945,40.224,60.945,47.983,60.945z"
   id="path7221" />
		<path
   fill="#E8E8E8"
   d="M47.983,88.058L47.983,88.058c0,0-15.461,0-34.419,0l3.6,3.62h30.819h1.496l0.34-0.345    c0.308-0.128,0.617-0.303,0.925-0.498L47.983,88.058L47.983,88.058z"
   id="path7223" />
		<path
   fill="#F0F0F0"
   d="M50.738,58.167l-2.755,2.778c4.967,0,4.967,27.113,0,27.113l2.76,2.777    c1.369-0.93,2.705-2.747,3.548-6.147c0.664-2.746,1.032-6.357,1.032-10.192c0-3.831-0.368-7.442-1.032-10.188    C53.447,60.907,52.111,59.096,50.738,58.167z"
   id="path7225" />
	</g>
	<g
   id="left">
		<g
   id="g7232">
			<path
   fill="#EBEBEB"
   d="M7.34,123.916c-1.82,0-3.247-5.735-3.247-13.057S5.52,97.803,7.34,97.803h34.213l13.063,13.052     l-13.063,13.062H7.34z"
   id="path7228" />
			<path
   fill="#EDF4F4"
   d="M41.346,98.303l12.563,12.552l-12.563,12.561H7.34c-1.147,0-2.746-4.776-2.746-12.556     c0-7.78,1.6-12.558,2.747-12.558H41.346 M41.76,97.303c-18.965,0-34.419,0-34.419,0H7.34c-4.995,0-4.995,27.113,0,27.113     c7.757,0,20.599,0,34.42,0l13.563-13.562L41.76,97.303L41.76,97.303z"
   id="path7230" />
		</g>
		<path
   fill="#DBDBDB"
   d="M41.76,97.303l-3.602-3.625H7.341c-0.863,0-1.822,0.226-2.784,0.846l2.784,2.778    C7.341,97.303,22.795,97.303,41.76,97.303z"
   id="path7234" />
		<path
   fill="#D6D6D6"
   d="M7.34,97.303L7.34,97.303l-2.783-2.778c-1.367,0.93-2.679,2.74-3.525,6.143    C0.368,103.413,0,107.025,0,110.854c0,3.835,0.368,7.447,1.032,10.193c0.845,3.402,2.158,5.212,3.525,6.143l2.783-2.774    C2.345,124.416,2.345,97.303,7.34,97.303z"
   id="path7236" />
		<path
   fill="#E5E5E5"
   d="M7.34,124.416l-2.783,2.774c0.961,0.62,1.92,0.846,2.783,0.846h30.817l3.603-3.62    C27.938,124.416,15.097,124.416,7.34,124.416z"
   id="path7238" />
	</g>
</g>
<g
   id="g7243">
</g>
<g
   id="g7245">
</g>
<g
   id="g7247">
</g>
<g
   id="g7249">
</g>
<g
   id="g7251">
</g>
<g
   id="g7253">
</g>
<g
   id="g7255">
</g>
<g
   id="g7257">
</g>
<g
   id="g7259">
</g>
<g
   id="g7261">
</g>
<g
   id="g7263">
</g>
<g
   id="g7265">
</g>
<g
   id="g7267">
</g>
<g
   id="g7269">
</g>
<g
   id="g7271">
</g>
<path
   style="fill:#000000;stroke-width:0.174199"
   d="m 8.5029088,83.179847 -8.62151266,-8.622832 8.62151266,-8.622832 8.6215122,-8.622833 16.026934,0.0038 c 15.73148,0.0038 16.041386,0.01035 16.810828,0.357667 1.673257,0.75529 3.109396,2.669222 3.98397,5.309406 2.173856,6.562486 1.791987,19.88217 -0.713902,24.900962 -0.62838,1.258517 -1.63212,2.429287 -2.726698,3.180443 L 49.42865,91.80268 H 33.276536 17.124421 Z"
   id="path10942" /><path
   style="fill:#000000;stroke-width:0.174199"
   d="M 13.293371,55.28491 C 5.8640625,54.669067 1.7796167,53.022939 0.38394005,50.082107 L -0.02942081,49.211114 -0.03112273,33.184179 -0.03282427,17.157246 8.5900081,8.535733 17.21284,-0.0857796 l 8.625958,8.6221725 8.625957,8.6221721 -0.04667,15.942987 -0.04668,15.942986 -0.580751,1.179524 c -1.641236,3.333407 -6.59577,4.943067 -15.619722,5.074634 -2.203613,0.03213 -4.398516,0.02592 -4.877562,-0.01378 z"
   id="path10944" /><path
   style="fill:#000000;stroke-width:0.174199"
   d="m 46.347562,48.221838 c -3.952132,-3.940849 -7.185694,-7.204326 -7.185694,-7.252169 0,-0.04784 0.156028,0.05421 0.346728,0.226796 0.345924,0.313057 0.346832,0.273265 0.391947,-17.175116 L 39.945762,6.5324487 38.702351,5.2671234 37.458939,4.001798 38.250815,3.3047609 c 1.519458,-1.33748 4.177117,-2.31277037 7.919979,-2.90642238 1.586638,-0.25165514 3.012792,-0.31039648 7.449561,-0.30683722 4.953401,0.0039736 5.706116,0.04351494 7.736818,0.40642586 4.908517,0.87721174 7.501449,2.18525544 8.730501,4.40423104 l 0.517048,0.933496 0.04608,16.2004728 0.04608,16.200473 -8.58181,8.57521 -8.581811,8.575212 z"
   id="path10946" /><path
   style="fill:#000000;stroke-width:0.174199"
   d="M 37.834094,39.686389 36.37469,38.261901 36.38229,22.310075 C 36.39029,5.5327468 36.37949,5.7807663 37.155337,4.5967012 l 0.300239,-0.458223 1.20152,1.1923134 1.201521,1.1923133 V 20.392105 c 0,14.631757 -0.11672,20.718772 -0.397286,20.718772 -0.09233,0 -0.824611,-0.641019 -1.627283,-1.424488 z"
   id="path10948" /><path
   style="fill:#000000;stroke-width:0.174199"
   d="m 39.793338,32.030774 c -0.142552,-0.712763 -0.109372,-4.543176 0.05564,-6.423575 0.09892,-1.127217 0.136377,-0.472256 0.156909,2.743629 0.01483,2.323374 -0.0024,4.224316 -0.03835,4.224316 -0.03593,0 -0.114318,-0.244966 -0.174199,-0.54437 z"
   id="path10950" /><path
   style="fill:#000000;stroke-width:0.174199"
   d="m 46.679926,48.367644 -6.85185,-6.853497 -0.01177,-5.035647 -0.01177,-5.035647 -0.110075,4.651787 c -0.06054,2.558483 -0.16485,4.706563 -0.231796,4.773509 -0.06695,0.06695 -0.790472,-0.497766 -1.607835,-1.254915 L 36.368716,38.2366 36.465309,22.471624 c 0.05313,-8.670737 0.160945,-16.0949346 0.239596,-16.4982165 0.07865,-0.403282 0.279738,-0.9419252 0.44686,-1.1969853 l 0.303857,-0.4637454 1.200063,1.1908672 1.200063,1.190867 0.04651,9.587043 0.04651,9.587043 0.04204,-9.663928 0.04204,-9.6639273 -1.241445,-1.2497862 -1.241445,-1.2497864 0.5882,-0.5346795 c 1.282424,-1.165735 3.725268,-2.171997 6.869923,-2.82987454 1.473998,-0.30836785 2.565583,-0.37549266 7.342137,-0.45148993 6.254927,-0.0995189 7.877419,0.0201647 11.10969,0.81950987 3.526012,0.8719874 5.580215,2.1089196 6.571459,3.9569863 l 0.447403,0.8341329 0.07875,16.1417998 0.07875,16.141799 -8.552252,8.550944 -8.552254,8.550944 z"
   id="path10952" /><path
   style="fill:#000000;stroke-width:0.174199"
   d="m 46.677611,48.365327 -6.854165,-6.855812 -0.0081,-4.249436 -0.0081,-4.249438 -0.11401,3.8705 c -0.06271,2.128776 -0.165722,3.922213 -0.228926,3.985416 -0.0632,0.0632 -0.79633,-0.50268 -1.62917,-1.257521 L 36.320832,38.2366 36.435187,22.384524 c 0.06289,-8.718641 0.184741,-16.1478048 0.270769,-16.5092521 0.08603,-0.3614474 0.286625,-0.8559053 0.445773,-1.0987955 l 0.28936,-0.4416185 1.165237,1.0899083 1.165237,1.0899082 0.09001,7.1510316 0.09,7.151031 0.04064,-7.138048 0.04064,-7.1380473 -1.257573,-1.2660233 -1.257574,-1.266023 0.604329,-0.51616 C 39.517606,2.3004786 42.317999,1.1717289 45.31887,0.5916222 47.248188,0.21866043 57.202236,0.04755034 59.748556,0.34357587 c 2.36994,0.27551999 5.490212,1.07768513 7.022458,1.80534473 1.486639,0.7060022 2.395956,1.470874 3.140392,2.6415418 l 0.55387,0.8709932 0.106991,16.2074144 0.106989,16.207413 -8.57374,8.572428 -8.573741,8.57243 z"
   id="path10954" /><path
   style="fill:#000000;stroke-width:0.174199"
   d="m 46.673108,48.363028 -6.85767,-6.85911 -0.0016,-3.288546 -0.0016,-3.288546 -0.122999,2.918848 c -0.06765,1.605366 -0.173,2.968848 -0.234114,3.029962 -0.06111,0.06111 -0.779224,-0.495438 -1.5958,-1.236782 l -1.4847,-1.347901 0.01595,-11.088789 c 0.0088,-6.098836 0.07243,-13.440472 0.141454,-16.314749 0.110717,-4.6103035 0.164125,-5.3032987 0.453356,-5.8824503 0.180319,-0.3610701 0.38711,-0.6354329 0.459534,-0.6096952 0.07243,0.025738 0.64513,0.5039765 1.272679,1.0627531 l 1.140997,1.0159574 0.04077,5.080995 0.04077,5.080994 0.04906,-5.044913 0.04906,-5.0449142 -1.265672,-1.2786105 -1.265672,-1.2786104 0.609695,-0.5183802 c 1.02796,-0.8740002 3.60625,-2.0323168 5.574357,-2.50432265 2.66294,-0.63864581 4.549073,-0.78574541 10.10352,-0.78797379 5.359049,-0.00215 7.079447,0.16145752 10.101701,0.96065804 3.102437,0.8204047 4.912427,1.9189979 6.016138,3.6515601 l 0.554855,0.8709932 0.120776,16.2004724 0.120775,16.200473 -8.58901,8.579868 -8.589011,8.579868 z"
   id="path10956" /><path
   style="fill:#000000;stroke-width:0.174199"
   d="m 46.639414,48.389393 -6.867851,-6.855904 0.02356,-2.606536 0.02355,-2.606538 -0.131428,2.22729 c -0.07229,1.22501 -0.182047,2.277908 -0.243913,2.339775 -0.108692,0.108693 -0.479882,-0.199081 -2.241198,-1.858302 L 36.37469,38.249696 36.38871,26.310542 c 0.01816,-15.468063 0.156905,-20.4130454 0.597706,-21.3023313 0.17809,-0.3592847 0.384802,-0.6532449 0.459361,-0.6532449 0.07456,0 0.647961,0.4793241 1.274226,1.0651648 l 1.138665,1.0651647 0.03947,3.3333507 0.03947,3.333351 0.05161,-3.3016769 0.05161,-3.3016768 -1.266915,-1.2834056 -1.266914,-1.2834059 0.609695,-0.5309311 c 0.954728,-0.83139 3.582003,-2.0019943 5.581653,-2.4869514 2.805927,-0.68049619 5.102332,-0.8326266 11.171746,-0.74009683 4.663005,0.0710887 5.708829,0.13641872 7.188341,0.44903774 4.331456,0.91523029 6.604515,2.11389949 7.908254,4.17031659 l 0.518757,0.8182488 0.12343,16.2875724 0.12343,16.287572 -1.892868,1.809075 c -1.041078,0.994993 -4.916708,4.821951 -8.612511,8.50435 l -6.719645,6.695274 z"
   id="path10958" /><path
   style="fill:#000000;stroke-width:0.174199"
   d="m 46.581153,48.412758 -6.847165,-6.866384 0.04959,-2.003284 0.04959,-2.003285 -0.145027,1.623943 c -0.07977,0.893169 -0.192433,1.671349 -0.250372,1.729287 -0.107822,0.107822 -0.541983,-0.251121 -2.148544,-1.776312 l -0.914543,-0.868222 0.0131,-12.548252 C 36.403854,10.318206 36.527555,5.9302415 36.97112,5.0082107 37.143963,4.648926 37.361623,4.3549658 37.454808,4.3549658 c 0.09318,0 0.672174,0.4827616 1.286641,1.0728035 l 1.117214,1.0728037 0.03746,2.1063214 0.03746,2.1063216 0.05546,-2.0804292 0.05546,-2.0804292 -1.268759,-1.2852628 -1.268759,-1.285263 0.609695,-0.5309311 c 0.927255,-0.8074666 3.544387,-1.9883823 5.488628,-2.47660693 2.772904,-0.69631275 5.001323,-0.84532653 11.251232,-0.75236701 4.930956,0.0733417 5.853909,0.13094729 7.299552,0.45559775 4.365745,0.98042209 6.725487,2.25426579 7.905301,4.26746709 l 0.430204,0.7340891 0.126986,16.2508063 0.126986,16.250804 -5.209282,5.221792 c -2.865104,2.871987 -6.761485,6.719138 -8.658623,8.549227 l -3.449343,3.327432 z"
   id="path10960" /><path
   style="fill:#000000;stroke-width:0.174199"
   d="m 46.520934,48.382853 -6.83647,-6.838113 -0.0261,-0.783077 c -0.0172,-0.515884 -0.05086,-0.619621 -0.09867,-0.30403 -0.03991,0.263475 -0.132717,0.479046 -0.206231,0.479046 -0.07351,0 -0.773811,-0.594713 -1.556217,-1.321582 L 36.37469,38.293514 36.387957,25.287259 C 36.403631,9.9210477 36.517889,5.9578274 36.97259,5.0082107 37.144624,4.648926 37.372162,4.3549658 37.478229,4.3549658 c 0.106066,0 0.665458,0.4507184 1.243091,1.0015964 L 39.771563,6.3581585 38.639272,5.1704487 37.506981,3.9827389 38.203776,3.3917786 C 39.529662,2.2672776 42.073813,1.2366879 45.140658,0.58177246 46.841864,0.21848487 57.379189,0.0478706 59.914097,0.34256943 64.983182,0.93188167 68.723059,2.6298757 70.090231,4.962776 l 0.418988,0.7149492 0.113563,16.2794378 0.113564,16.279437 -8.535263,8.492183 c -4.694393,4.670701 -8.604656,8.492184 -8.689472,8.492184 -0.08481,0 -3.230619,-3.077151 -6.990677,-6.838114 z m -6.713266,-9.403878 c -0.04167,-0.216687 -0.07734,-0.08042 -0.07927,0.302817 -0.0019,0.383237 0.03216,0.560527 0.07576,0.393978 0.0436,-0.16655 0.04518,-0.480107 0.0035,-0.696795 z M 39.986437,7.1031989 c -0.0368,-0.4097218 -0.06742,-0.1178337 -0.06806,0.6486403 -6.27e-4,0.766474 0.02947,1.1017009 0.06691,0.7449488 0.03743,-0.3567522 0.03795,-0.9838673 0.0011,-1.3935891 z"
   id="path10962" /><path
   style="fill:#000000;stroke-width:0.174199"
   d="m 46.520934,48.382853 c -6.293458,-6.29497 -6.838075,-6.886474 -6.856677,-7.446991 -0.01111,-0.334883 -0.05606,-0.471697 -0.09987,-0.304031 -0.04381,0.167666 -0.139271,0.304848 -0.212123,0.304848 -0.07285,0 -0.772609,-0.594713 -1.555015,-1.321582 L 36.37469,38.293514 36.385914,25.025961 C 36.398822,9.7676234 36.510065,5.9834701 36.974377,5.0082107 37.145429,4.648926 37.37113,4.3549658 37.475935,4.3549658 c 0.104806,0 0.507418,0.2938909 0.894695,0.6530909 0.665063,0.616848 0.660637,0.6064588 -0.07975,-0.1872106 L 37.506981,3.9805445 38.203776,3.387333 c 1.398561,-1.1906562 4.293952,-2.3199389 7.403442,-2.88754744 0.961923,-0.17559015 3.098236,-0.23818982 8.100236,-0.23735847 l 6.793747,0.001129 2.090383,0.4962633 c 3.464661,0.82252091 5.438856,1.76211051 6.740343,3.20797051 1.282541,1.4248128 1.181168,0.014918 1.29585,18.0226061 L 70.73124,38.2366 62.215199,46.728783 c -4.683824,4.670701 -8.592938,8.492184 -8.68692,8.492184 -0.09398,0 -3.247287,-3.077151 -7.007345,-6.838114 z M 39.981867,7.2748239 c -0.04167,-0.2166877 -0.07734,-0.08042 -0.07927,0.3028166 -0.0019,0.383237 0.03216,0.5605272 0.07576,0.393978 0.0436,-0.1665491 0.04518,-0.4801066 0.0035,-0.6967946 z"
   id="path10964" /><path
   style="fill:#000000;stroke-width:0.174199"
   d="m 46.520934,48.382853 c -5.938772,-5.940197 -6.83682,-6.906627 -6.839137,-7.359892 -0.002,-0.38713 -0.04419,-0.456137 -0.163564,-0.267407 -0.18852,0.298042 -0.326134,0.200126 -2.054801,-1.462035 L 36.37469,38.246665 36.38359,24.741239 C 36.393495,9.636644 36.502786,6.0041606 36.977406,5.0039737 37.335273,4.2498251 37.496619,4.2129666 38.105449,4.7462797 38.469287,5.0649888 38.457777,5.0332248 38.043412,4.5750829 37.543408,4.0222548 37.540255,4.0063785 37.860276,3.6527595 38.830955,2.5801711 41.705506,1.3353454 44.770665,0.6602119 46.476934,0.28438829 46.91702,0.26514703 53.707454,0.26948043 l 7.142144,0.004558 2.351682,0.62315645 c 3.716226,0.98473782 5.808643,2.22217392 6.896557,4.07856102 l 0.442259,0.7546556 0.103829,16.2244625 0.103829,16.224463 -8.519483,8.520815 c -4.685716,4.686449 -8.598544,8.520815 -8.695176,8.520815 -0.09663,0 -3.252103,-3.077151 -7.012161,-6.838114 z"
   id="path10966" /><path
   style="fill:#000000;stroke-width:0.174199"
   d="m 5.2446576,127.6105 -0.9065694,-0.42208 1.385442,-1.34824 1.385442,-1.34824 -0.4862473,-0.23549 C 5.0861041,123.51224 4.0088453,119.75436 3.618595,113.77693 3.1230413,106.18658 4.5292101,98.528117 6.616625,97.448673 L 7.1555729,97.169972 5.7917835,95.798137 4.4279941,94.426301 5.2896106,94.029033 6.1512272,93.631765 22.136952,93.58382 l 15.985724,-0.04795 8.618698,8.67078 8.618701,8.67078 -8.57749,8.57928 -8.577489,8.57929 -16.026934,-0.002 -16.0269348,-0.002 -0.9065696,-0.42209 z"
   id="path10968" /><path
   style="fill:#000000;stroke-width:0.174199"
   d="M 3.4608993,126.17664 C 1.9531595,124.46376 0.9450939,121.55395 0.42377399,117.40988 -0.52983684,109.82945 0.23963796,101.3234 2.2369092,97.366831 2.5254225,96.79529 3.1322252,95.917061 3.5853597,95.415212 l 0.8238812,-0.912453 1.2525017,1.314804 1.252502,1.314804 -0.5721321,0.456514 C 5.2827585,98.43416 4.44557,100.78414 3.849688,104.5851 c -0.4219873,2.69173 -0.4179777,9.62761 0.00723,12.51062 0.6527222,4.42557 1.6454628,6.89162 2.9492684,7.32623 0.1738145,0.0579 -2.1134881,2.39164 -2.4823506,2.53271 -0.073284,0.028 -0.4616067,-0.32208 -0.8629387,-0.77802 z"
   id="path10970" /><path
   style="fill:#000000;stroke-width:0.174199"
   d="m 5.3680979,127.58699 -0.9573281,-0.44561 1.349275,-1.2234 c 0.7421012,-0.67288 1.3492749,-1.28694 1.3492749,-1.36458 0,-0.0776 -0.2670327,-0.29872 -0.5934063,-0.49128 -1.0814331,-0.63806 -1.8576691,-2.76559 -2.4906472,-6.82644 -0.4782086,-3.06793 -0.426812,-10.63642 0.091439,-13.46504 0.6449857,-3.52032 1.5825102,-5.807041 2.5641944,-6.254326 0.2356309,-0.10736 0.4284198,-0.278762 0.4284198,-0.380891 0,-0.10213 -0.5593797,-0.748829 -1.2430659,-1.437109 L 4.6231879,94.446897 5.3001082,94.106798 C 5.9523838,93.779081 6.561778,93.763088 22.038397,93.66753 l 16.061366,-0.09917 8.559848,8.63822 8.559845,8.63822 -8.594279,8.5956 -8.594279,8.5956 -15.852736,-0.002 -15.8527362,-0.002 -0.9573279,-0.4456 z"
   id="path10972" /><path
   style="fill:#000000;stroke-width:0.174199"
   d="m 5.282034,127.56783 -0.8691932,-0.45194 1.387739,-1.27147 c 0.7632566,-0.6993 1.3503669,-1.30156 1.3046898,-1.33834 -0.045677,-0.0368 -0.335608,-0.24124 -0.6442911,-0.45434 -1.0319624,-0.71241 -1.8227693,-2.87595 -2.4308353,-6.65042 -0.374195,-2.32276 -0.4326554,-10.27129 -0.092554,-12.5841 0.5499819,-3.74008 1.5589609,-6.521198 2.604472,-7.178886 C 6.8466725,97.446715 7.0989194,97.231381 7.10261,97.159813 7.1063,97.088243 6.5549011,96.44603 5.877278,95.732669 L 4.6452353,94.435649 5.311132,94.10138 c 0.6367763,-0.31965 1.3667398,-0.339346 16.692171,-0.45039 l 16.026274,-0.116121 8.622172,8.627731 8.622172,8.62773 -8.621512,8.62283 -8.621511,8.62284 -15.939836,-0.008 -15.9398348,-0.008 z"
   id="path10974" /><path
   style="fill:#000000;stroke-width:0.174199"
   d="m 5.2997716,127.57685 -0.8514554,-0.44293 1.3318404,-1.3397 1.3318402,-1.3397 -0.5271051,-0.31137 c -0.2899079,-0.17125 -0.760111,-0.71763 -1.0448958,-1.21419 -0.5812454,-1.01346 -0.7039034,-0.98604 -0.1803011,0.0403 0.1874173,0.36737 0.5765941,0.86639 0.8648376,1.10893 l 0.5240791,0.44098 -1.148717,1.14872 c -0.6317943,0.63179 -1.2102827,1.14872 -1.2855297,1.14872 -0.3069702,0 -1.5511164,-1.6413 -2.0741417,-2.73625 C 0.96577399,121.41232 0.33669397,117.77343 0.19389661,112.24346 0.05130339,106.7214 0.52849297,102.33425 1.6211465,99.121716 2.1231127,97.645874 2.5993441,96.78815 3.6453734,95.475948 l 0.7517145,-0.942996 1.1781069,1.28795 1.1781071,1.287951 -0.5866909,0.613138 c -0.724842,0.757516 -0.9883401,1.277593 -1.5462602,3.051919 -0.8610961,2.7385 -1.0795729,4.77805 -1.0729589,10.01642 0.00598,4.73734 0.1215727,6.18155 0.7083408,8.85003 0.4098354,1.86383 0.4638251,1.43064 0.073141,-0.58685 C 3.3240388,113.86453 3.4325963,105.86885 4.566448,101.55523 5.0804223,99.599876 5.5754211,98.550493 6.3295047,97.817608 L 7.0705001,97.097443 5.861893,95.764492 4.6532862,94.431542 5.3151574,94.096817 C 5.948267,93.776638 6.6734482,93.756823 22.003303,93.640812 l 16.026274,-0.12128 8.622172,8.635398 8.622172,8.6354 -8.621512,8.62283 -8.621511,8.62284 -15.939836,-0.008 -15.9398348,-0.008 z m -0.4402501,-6.17866 c -0.091794,-0.22948 -0.1718678,-0.32566 -0.1779409,-0.21374 -0.014751,0.27186 0.1881747,0.78764 0.2755186,0.7003 0.038127,-0.0381 -0.00578,-0.25708 -0.097578,-0.48656 z"
   id="path10976" /><path
   style="fill:#000000;stroke-width:0.174199"
   d="m 5.2997716,127.57685 -0.8514554,-0.44293 1.3385305,-1.34643 1.3385305,-1.34643 -0.4503249,-0.20518 c -0.2476786,-0.11285 -0.6941506,-0.59741 -0.9921597,-1.07681 -0.2980091,-0.4794 -0.5709053,-0.87163 -0.6064361,-0.87163 -0.2047038,0 0.7091299,1.4214 1.1550832,1.79664 l 0.5310864,0.44688 -1.1428207,1.14282 c -0.6285514,0.62856 -1.2077334,1.14283 -1.2870713,1.14283 -0.079338,0 -0.4187063,-0.3038 -0.7541521,-0.67509 -2.4396211,-2.70037 -3.58632372,-8.39777 -3.3877115,-16.83188 0.1659157,-7.04564 1.108619,-10.891411 3.3711311,-13.752581 l 0.8192982,-1.036084 1.1988219,1.279792 1.1988219,1.279792 -0.5052809,0.540185 c -0.6054615,0.647287 -1.080528,1.338058 -1.080528,1.571143 0,0.09325 0.2224318,-0.181195 0.494293,-0.609876 0.2718612,-0.42868 0.7120408,-0.922093 0.9781767,-1.096472 L 7.1494878,97.168487 6.3860738,96.358218 C 5.966196,95.912571 5.3996066,95.299281 5.1269863,94.995351 L 4.631313,94.442752 5.3041707,94.100092 c 0.6492181,-0.330621 1.2359168,-0.34694 16.6991323,-0.464488 l 16.026274,-0.121828 8.615244,8.631344 c 4.738386,4.74725 8.579466,8.66912 8.535733,8.71529 -0.04373,0.0462 -3.915649,3.92955 -8.604262,8.62976 L 38.051542,128.036 22.101384,128.028 6.1512272,128.02 Z M 4.4411391,119.816 c -0.055609,-0.13897 -0.096886,-0.0977 -0.1052451,0.10524 -0.00756,0.18364 0.033608,0.28652 0.091493,0.22864 0.057885,-0.0579 0.064073,-0.20813 0.013752,-0.33388 z M 4.227124,118.55009 c -0.066634,-0.44435 -0.1567845,-0.77228 -0.2003341,-0.72873 -0.04355,0.0435 -0.024662,0.44274 0.041972,0.88709 0.066634,0.44435 0.1567845,0.77228 0.2003342,0.72873 0.04355,-0.0435 0.024662,-0.44274 -0.041972,-0.88709 z m -0.4054562,-2.8822 c -0.098991,-1.10383 -0.1558821,-1.36486 -0.170851,-0.78389 -0.02433,0.94428 0.1722411,2.89429 0.2633148,2.61212 0.03077,-0.0953 -0.010839,-0.91804 -0.092464,-1.82823 z m -0.2420929,-6.1405 c -0.035189,-0.503 -0.063979,-0.0914 -0.063979,0.91454 0,1.006 0.028791,1.41754 0.063979,0.91455 0.035189,-0.503 0.035189,-1.32609 0,-1.82909 z m 0.4865501,-5.42617 c 0.1441265,-0.94845 0.2305743,-1.75593 0.1921066,-1.7944 -0.1240462,-0.12405 -0.4647092,2.08599 -0.5289821,3.43175 -0.034318,0.71857 -0.031522,1.03213 0.00622,0.69679 0.037737,-0.33533 0.1865339,-1.38569 0.3306603,-2.33414 z m 0.3750141,-2.40188 c -0.055609,-0.13896 -0.096886,-0.0977 -0.1052451,0.10524 -0.00756,0.18364 0.033608,0.28653 0.091493,0.22864 0.057885,-0.0579 0.064073,-0.20813 0.013752,-0.33388 z m 0.6839364,-2.183847 c -0.081262,-0.08126 -0.6339402,1.505417 -0.6160073,1.768497 0.007,0.10269 0.1635307,-0.23814 0.3478454,-0.75741 0.1843145,-0.51927 0.3049875,-0.974262 0.2681619,-1.011087 z"
   id="path10978" /><path
   style="fill:#000000;stroke-width:0.174199"
   d="m 5.3673334,127.63699 c -0.4311417,-0.20757 -0.8189097,-0.40103 -0.8617069,-0.42992 -0.042797,-0.0289 0.5432841,-0.67729 1.3024031,-1.44089 0.7591188,-0.76359 1.2900827,-1.38836 1.1799198,-1.38836 -0.1101629,0 -0.4610761,-0.20487 -0.7798071,-0.45527 l -0.579511,-0.45527 0.5552714,0.5302 0.5552714,0.5302 -0.6976114,0.79253 c -0.3836862,0.43589 -0.9331038,0.96021 -1.2209281,1.16516 l -0.5233165,0.37264 -0.5173339,-0.49564 C 1.2436068,123.93236 -0.01415222,117.96715 0.19114751,109.34148 0.36109463,102.20115 1.4251482,97.93021 3.6639451,95.40223 L 4.4100821,94.559716 5.6100046,95.80262 6.8099273,97.045524 6.3063786,97.588352 5.8028299,98.13118 6.4534728,97.62552 7.1041157,97.119861 6.0946968,96.072608 C 4.5112817,94.429844 4.5352006,94.491784 5.3280528,94.087301 5.9917426,93.748712 6.4721185,93.735358 22.020493,93.623254 l 16.009084,-0.115425 8.617746,8.636821 8.617746,8.63683 -0.604609,0.65376 c -0.332535,0.35957 -4.168079,4.24184 -8.523433,8.62726 l -7.918822,7.9735 -16.03349,-0.0108 -16.0334878,-0.0108 z m 0.1421671,-4.74059 c -0.1093185,-0.23993 -0.2315732,-0.40342 -0.271677,-0.36332 -0.081359,0.0814 0.2718322,0.79955 0.3932022,0.79955 0.04248,0 -0.012206,-0.1963 -0.1215252,-0.43623 z m -1.24256,-3.9514 c -0.055609,-0.13896 -0.096886,-0.0977 -0.1052451,0.10525 -0.00756,0.18363 0.033608,0.28652 0.091493,0.22864 0.057885,-0.0579 0.064073,-0.20814 0.013752,-0.33389 z m -0.1778278,-0.88188 c -0.048325,-0.11976 -0.087863,-0.0218 -0.087863,0.21775 0,0.23953 0.039538,0.33751 0.087863,0.21775 0.048325,-0.11976 0.048325,-0.31573 0,-0.4355 z m -0.168849,-1.30317 c -0.044167,-0.16949 -0.083208,-0.073 -0.086758,0.21443 -0.00355,0.28743 0.032587,0.4261 0.080304,0.30816 0.047717,-0.11793 0.050622,-0.3531 0.00645,-0.52259 z m -0.169915,-1.74291 c -0.04004,-0.26479 -0.07387,-0.0895 -0.075178,0.38955 -0.00131,0.47905 0.031452,0.6957 0.072801,0.48145 0.041348,-0.21426 0.042418,-0.6062 0.00238,-0.871 z m -0.00963,-9.32202 c -0.048325,-0.11976 -0.087863,-0.0218 -0.087863,0.21775 0,0.23952 0.039538,0.33751 0.087863,0.21775 0.048325,-0.11976 0.048325,-0.31574 0,-0.4355 z m 0.1795482,-1.30317 c -0.044167,-0.16949 -0.083208,-0.073 -0.086758,0.21443 -0.00355,0.28743 0.032587,0.4261 0.080304,0.30816 0.047717,-0.11794 0.050622,-0.3531 0.00645,-0.52259 z m 0.168849,-1.13561 c -0.048325,-0.11976 -0.087863,-0.0218 -0.087863,0.21775 0,0.23952 0.039538,0.33751 0.087863,0.21775 0.048325,-0.11977 0.048325,-0.31574 0,-0.4355 z m 0.1778278,-0.68591 c -0.055609,-0.13896 -0.096886,-0.0977 -0.1052451,0.10525 -0.00756,0.18363 0.033608,0.28652 0.091493,0.22863 0.057885,-0.0579 0.064073,-0.20813 0.013752,-0.33388 z M 5.626669,98.662078 c 0.1646709,-0.25132 0.2133026,-0.403733 0.1080706,-0.338696 -0.201094,0.124283 -0.6066776,0.79564 -0.4806659,0.79564 0.040257,0 0.2079245,-0.205625 0.3725953,-0.456944 z"
   id="path10980" /><path
   style="fill:#000000;stroke-width:0.174199"
   d="m 5.280234,127.65803 c -0.3832369,-0.1994 -0.7317497,-0.3942 -0.7744726,-0.43289 -0.042723,-0.0387 0.5030653,-0.65497 1.2128628,-1.36954 1.0687482,-1.07593 1.2498486,-1.33701 1.0537647,-1.51914 -0.1849624,-0.17181 -0.2099106,-0.17234 -0.1140062,-0.002 0.075008,0.13287 -0.2353541,0.59615 -0.7977681,1.19082 -1.3424557,1.41944 -1.4477159,1.45111 -2.2428557,0.67467 C 2.259489,124.87365 1.1225649,121.8342 0.54266879,117.97903 0.10114592,115.04331 0.097647,106.48745 0.53683534,103.7141 1.1651261,99.746637 2.1734612,97.062334 3.6576793,95.40606 l 0.7515616,-0.838686 1.2103457,1.226226 1.2103458,1.226226 -0.426452,0.467489 -0.4264518,0.46749 0.564791,-0.407742 0.564791,-0.407742 -1.2180359,-1.256165 C 5.218655,95.192264 4.6705388,94.581034 4.6705388,94.524865 c 0,-0.05617 0.3050008,-0.257725 0.6777796,-0.447902 0.6560477,-0.334691 1.1899129,-0.349679 16.6504396,-0.467459 l 15.972659,-0.121682 8.608362,8.607048 c 4.7346,4.73387 8.608363,8.68603 8.608363,8.78257 0,0.0965 -3.821778,3.9967 -8.492843,8.66704 L 38.202455,128.036 22.089742,128.028 C 6.1140442,128.02 5.9711034,128.0172 5.280234,127.65773 Z m 1.1322912,-3.52017 c 0,-0.0362 -0.1371815,-0.17336 -0.3048476,-0.30485 -0.2762888,-0.21668 -0.2824502,-0.21052 -0.06577,0.0658 0.2275677,0.29017 0.3706172,0.38245 0.3706172,0.23908 z M 5.541532,122.98424 c -0.1025511,-0.19162 -0.2256513,-0.3484 -0.273556,-0.3484 -0.047905,0 -0.00319,0.15678 0.099357,0.3484 0.102551,0.19161 0.2256513,0.34839 0.2735559,0.34839 0.047905,0 0.00319,-0.15678 -0.099357,-0.34839 z m -1.6229888,-6.12962 c -0.055609,-0.13896 -0.096886,-0.0977 -0.1052451,0.10525 -0.00756,0.18363 0.033608,0.28652 0.091493,0.22863 0.057885,-0.0579 0.064073,-0.20813 0.013752,-0.33388 z m -0.1724781,-1.66246 c -0.044167,-0.16949 -0.083208,-0.073 -0.086758,0.21443 -0.00355,0.28743 0.032586,0.4261 0.080304,0.30817 0.047717,-0.11794 0.050622,-0.35311 0.00645,-0.5226 z m 0.1724781,-10.70564 c -0.055609,-0.13897 -0.096886,-0.0977 -0.1052451,0.10524 -0.00756,0.18364 0.033608,0.28652 0.091493,0.22864 0.057885,-0.0579 0.064073,-0.20813 0.013752,-0.33388 z"
   id="path10982" /><path
   style="fill:#000000;stroke-width:0.174199"
   d="m 5.280234,127.65803 c -0.3832369,-0.1994 -0.7295496,-0.392 -0.7695836,-0.428 -0.040034,-0.036 0.4950734,-0.65108 1.1891273,-1.36686 1.0598781,-1.09306 1.385351,-1.65954 0.953484,-1.65954 -0.047905,0 -0.038726,0.0783 0.020396,0.17393 0.1153505,0.18664 -1.5171934,2.00479 -2.0618812,2.29629 -0.7984664,0.42733 -2.493455,-2.18184 -3.3288101,-5.12418 -0.86688475,-3.0534 -1.05302482,-4.97897 -1.04850193,-10.84644 0.003746,-4.85927 0.0443621,-5.62547 0.40551184,-7.64972 C 1.3221766,99.229783 2.1696218,97.089965 3.6718743,95.397906 L 4.4092409,94.567374 5.6177463,95.791746 6.826252,97.016117 6.4887395,97.397741 6.1512272,97.779366 6.6419578,97.463411 7.1326883,97.147457 5.8802449,95.886598 C 5.1614175,95.162941 4.6790904,94.542752 4.7481812,94.430961 4.8143903,94.323832 5.1485749,94.119185 5.4908139,93.976188 6.0199725,93.755092 8.4961378,93.699052 22.041848,93.601614 l 15.92878,-0.114581 8.608757,8.607437 c 4.734817,4.73409 8.608757,8.68643 8.608757,8.78297 0,0.0965 -3.821778,3.9967 -8.492843,8.66704 L 38.202455,128.036 22.089742,128.028 C 6.1140442,128.02 5.9711034,128.0172 5.280234,127.65773 Z"
   id="path10984" /><path
   style="fill:#000000;stroke-width:0.174199"
   d="m 5.280234,127.65803 c -0.3832369,-0.1994 -0.7316002,-0.39405 -0.7741406,-0.43255 -0.04254,-0.0385 0.427796,-0.59424 1.0451918,-1.23497 l 1.1225379,-1.16496 -1.0758095,0.99553 c -0.5916951,0.54754 -1.1500344,0.99553 -1.2407541,0.99553 -0.3704134,0 -1.678098,-1.68186 -2.2140582,-2.84758 -0.6458856,-1.40481 -1.35968747,-4.1354 -1.69185709,-6.47205 C 0.09447523,114.98658 0.15185852,105.9689 0.54031766,103.51497 1.1392109,99.73171 2.1497655,97.112331 3.6718743,95.397906 l 0.7373666,-0.830532 1.2051626,1.221003 c 1.0833155,1.097554 1.1801826,1.251278 0.9580924,1.52045 -0.2278904,0.276202 -0.2149663,0.282337 0.1664893,0.07903 0.411594,-0.219363 0.4075602,-0.22645 -0.8488122,-1.491264 -2.2741494,-2.289429 -3.1137731,-2.169746 16.139326,-2.300556 l 15.941821,-0.108312 8.608412,8.607095 c 4.734625,4.7339 8.60841,8.68608 8.60841,8.78262 0,0.0965 -3.821778,3.9967 -8.492843,8.66704 L 38.202455,128.036 22.089742,128.028 C 6.1140442,128.02 5.9711034,128.0172 5.280234,127.65773 Z"
   id="path10986" /><path
   style="fill:#000000;stroke-width:0.174199"
   d="m 5.280234,127.65803 c -0.3832369,-0.1994 -0.7312632,-0.39372 -0.7733915,-0.43181 -0.042128,-0.0381 0.3106238,-0.47549 0.7838938,-0.97201 l 0.8604909,-0.90277 -0.8235514,0.73258 c -0.4529532,0.40292 -0.8937085,0.73259 -0.9794562,0.73259 -0.2874634,0 -1.5674952,-1.52734 -2.007122,-2.3949 C 0.69544879,121.17418 0.02960833,116.47283 0.18884135,109.2251 0.34679845,102.03546 1.3653207,97.982622 3.6730775,95.360871 l 0.7014006,-0.796833 1.1959153,1.186751 c 0.6577533,0.652713 1.1579687,1.285638 1.1115899,1.406499 -0.046379,0.120862 -0.0084,0.219748 0.084406,0.219748 0.4105675,0 0.086849,-0.526716 -0.9635598,-1.567788 -0.6227601,-0.617224 -1.1322911,-1.213966 -1.1322911,-1.326092 0,-0.112127 0.3331549,-0.337241 0.7403442,-0.500255 0.6714908,-0.268823 2.2201297,-0.30551 16.6517054,-0.394469 l 15.911361,-0.09808 8.607097,8.605778 c 4.733903,4.73318 8.607096,8.68477 8.607096,8.78131 0,0.0965 -3.821778,3.9967 -8.492843,8.66704 L 38.202455,128.036 22.089742,128.028 C 6.1140438,128.02 5.971103,128.0172 5.2802336,127.65773 Z"
   id="path10988" /><path
   style="fill:#000000;stroke-width:0.174199"
   d="m 5.280234,127.65803 c -0.3832369,-0.1994 -0.730631,-0.39309 -0.7719868,-0.4304 -0.041356,-0.0373 0.1938123,-0.35584 0.5225959,-0.70784 l 0.5977882,-0.63999 -0.5795109,0.4684 c -0.3187311,0.25762 -0.6419023,0.46841 -0.7181583,0.46841 -0.076256,0 -0.4707927,-0.36034 -0.8767483,-0.80075 -1.3475993,-1.46197 -2.4571942,-4.5268 -2.98958428,-8.25758 C 0.0867691,115.11038 0.14296568,105.83236 0.55164488,103.3921 1.1788247,99.647152 2.1898132,97.045949 3.6730775,95.360871 l 0.7014006,-0.796833 1.2367358,1.188751 1.2367357,1.18875 -1.0887054,-1.136977 C 5.1604563,95.179224 4.6705388,94.580217 4.6705388,94.473436 c 0,-0.10678 0.3331549,-0.32904 0.7403442,-0.49391 0.6758242,-0.27364 2.1294224,-0.307351 16.679519,-0.386822 l 15.939175,-0.08706 8.535733,8.558656 c 4.694653,4.70725 8.565054,8.64508 8.600892,8.75071 0.03584,0.10564 -3.765747,4.02358 -8.447968,8.70653 L 38.205108,128.036 22.091069,128.028 C 6.1140267,128.02 5.9711046,128.0172 5.280234,127.65773 Z"
   id="path10990" /><path
   style="fill:#000000;stroke-width:0.174199"
   d="m 5.280234,127.65803 c -0.3832369,-0.1994 -0.7297658,-0.39222 -0.7700642,-0.42848 -0.040298,-0.0363 0.1164806,-0.28062 0.3483973,-0.54303 0.3071869,-0.34759 0.3233552,-0.39469 0.059553,-0.17352 -0.5110742,0.4285 -0.6680453,0.38833 -1.3665048,-0.34964 -1.2971738,-1.37055 -2.3059761,-3.90939 -2.90388522,-7.30815 -0.46668394,-2.65283 -0.65158684,-9.6563 -0.34630015,-13.11664 C 0.73809584,100.78909 1.810177,97.477238 3.6536661,95.382924 l 0.7186183,-0.816394 0.8022181,0.752008 0.8022182,0.752008 -0.6530911,-0.704139 c -0.3592,-0.387277 -0.6530909,-0.790309 -0.6530909,-0.895628 0,-0.105319 0.3331549,-0.327295 0.7403442,-0.493279 0.6777384,-0.27627 2.0901552,-0.30941 16.7025481,-0.391907 l 15.962202,-0.09012 8.512706,8.577837 c 4.681987,4.71781 8.542025,8.65792 8.577863,8.75581 0.03584,0.0979 -3.765747,4.00947 -8.447968,8.69242 L 38.205108,128.036 22.091069,128.028 C 6.1140266,128.02 5.9711045,128.0172 5.2802339,127.65773 Z"
   id="path10992" /><path
   style="fill:#000000;stroke-width:0.174199"
   d="m 5.280234,127.65803 c -0.9133495,-0.47524 -0.889115,-0.43313 -0.5070113,-0.88091 0.2501758,-0.29317 0.2591951,-0.33311 0.036325,-0.16087 -0.4404924,0.34043 -0.865774,0.1214 -1.5782112,-0.81281 C 1.9752792,124.1564 1.0020444,121.41693 0.49194094,118.0926 0.18641509,116.10149 0.06356135,108.2641 0.29682018,105.64497 0.74153699,100.65151 1.871839,97.323393 3.8952894,95.049471 4.3311006,94.559713 4.3455728,94.556585 4.7224485,94.87065 4.9334213,95.046463 5.0080487,95.078724 4.8882871,94.94234 3.7841604,93.68499 5.8904863,93.550054 26.87462,93.533845 l 11.316666,-0.0087 8.454878,8.569725 c 4.650184,4.71335 8.4842,8.6468 8.520038,8.74099 0.03584,0.0942 -3.765747,4.00277 -8.447968,8.68572 l -8.513126,8.51446 -16.114039,-0.008 c -15.9770423,-0.008 -16.1199644,-0.0108 -16.810835,-0.37027 z"
   id="path10994" /><path
   style="fill:#000000;stroke-width:0.174199"
   d="m 5.280234,127.65803 c -0.8897839,-0.46297 -0.8704322,-0.44016 -0.624563,-0.73641 0.1730672,-0.20853 0.1471985,-0.23565 -0.1505416,-0.15779 -0.7993625,0.20904 -2.4333779,-2.34536 -3.2019379,-5.00547 -0.80261621,-2.77799 -1.0109876,-4.52203 -1.11270098,-9.31314 -0.15893704,-7.48658 0.40748888,-11.58591 2.07386538,-15.008943 0.5708676,-1.172662 1.8423296,-2.820619 2.1884346,-2.836456 0.1197616,-0.0055 0.2177483,-0.08187 0.2177483,-0.169754 0,-0.08788 0.3331549,-0.278576 0.7403442,-0.423758 0.9913023,-0.353446 5.600714,-0.459242 20.773187,-0.476792 l 12.019706,-0.0139 8.485126,8.593803 c 4.666818,4.7266 8.488301,8.6725 8.492184,8.76868 0.0039,0.0962 -3.814722,3.99604 -8.485787,8.66638 L 38.202455,128.036 22.089742,128.028 C 6.1140442,128.02 5.9711034,128.0172 5.280234,127.65773 Z"
   id="path10996" /><path
   style="fill:#000000;stroke-width:0.174199"
   d="m 5.2268918,127.66441 c -0.447642,-0.22158 -0.7157412,-0.46094 -0.6648418,-0.59358 0.049251,-0.12835 -0.087413,-0.26562 -0.3234041,-0.32485 -0.8466698,-0.21251 -2.2528365,-2.62763 -2.969215,-5.0997 -0.91358022,-3.15258 -1.02732729,-4.35903 -1.02352394,-10.85595 0.00316,-5.39778 0.0415815,-6.21387 0.3772591,-8.01314 0.42819554,-2.29516 0.89372364,-3.813849 1.63332134,-5.32836 0.5627459,-1.152363 1.7794221,-2.73797 2.1701451,-2.828195 0.1341485,-0.03098 0.2439063,-0.122481 0.2439063,-0.203341 0,-0.08086 0.3331549,-0.265873 0.7403442,-0.411139 1.0194299,-0.363686 5.052715,-0.459204 20.250591,-0.479584 l 12.542302,-0.01682 8.488065,8.596739 c 4.668436,4.72821 8.489919,8.67543 8.492183,8.77161 0.0023,0.0962 -3.81766,3.99604 -8.488725,8.66638 l -8.492844,8.49152 -16.112713,-1.4e-4 C 5.9964986,128.03572 5.9761222,128.03534 5.2268918,127.66441 Z"
   id="path10998" /><path
   style="fill:#000000;stroke-width:0.174199"
   d="M 5.2366844,127.66926 C 4.8294951,127.4677 4.4963402,127.1934 4.4963402,127.0597 c 0,-0.1337 -0.111877,-0.24309 -0.2486156,-0.24309 -0.6260652,0 -2.2225458,-2.65599 -2.8794876,-4.79047 -1.01267831,-3.2903 -1.30556363,-6.46567 -1.17999096,-12.79309 0.0942181,-4.74752 0.27021182,-6.32228 1.01352146,-9.06884 0.7417222,-2.740687 2.2473987,-5.098501 3.7924773,-5.938827 0.7885263,-0.428858 1.0050101,-0.457301 4.3034125,-0.565408 1.9102147,-0.06261 9.1955427,-0.124064 16.1896187,-0.136568 l 12.7165,-0.02274 8.489967,8.601283 c 4.669484,4.73071 8.490966,8.67997 8.492184,8.77615 0.0012,0.0962 -3.819563,3.99604 -8.490628,8.66638 l -8.492844,8.49152 -16.112713,-1.4e-4 c -16.0266171,-1.4e-4 -16.1166693,-0.002 -16.8530576,-0.3666 z"
   id="path11000" /><path
   style="fill:#000000;stroke-width:0.174199"
   d="M 5.2366844,127.66926 C 4.8294951,127.4677 4.4963402,127.1934 4.4963402,127.0597 c 0,-0.1337 -0.111877,-0.24309 -0.2486156,-0.24309 -0.6471448,0 -2.2163515,-2.65159 -2.9380805,-4.96467 -0.93650177,-3.00139 -1.06990837,-4.36552 -1.07326759,-10.97451 -0.003281,-6.45491 0.0892496,-7.48228 0.96488939,-10.71322 0.7434582,-2.743209 2.2482393,-5.098712 3.7944244,-5.939582 0.7780636,-0.423139 1.0333,-0.459584 3.955015,-0.564738 1.7178017,-0.06182 9.0024797,-0.125248 16.1881727,-0.140941 l 13.064898,-0.02853 8.492157,8.606401 c 4.670687,4.73353 8.492169,8.6851 8.492183,8.78128 1.4e-5,0.0962 -3.821752,3.99604 -8.492817,8.66638 l -8.492844,8.49152 -16.112713,-1.4e-4 c -16.0266171,-1.4e-4 -16.1166693,-0.002 -16.8530576,-0.3666 z"
   id="path11002" /></svg>
